Coordinates
version=1
nRows=23
nColumns=34
inDegrees=no

Units are S.I. units (second, meters, Newtons, ...)
If the header above contains a line with 'inDegrees', this indicates whether rotational values are in degrees (yes) or radians (no).

endheader
time	pelvis_tilt	pelvis_list	pelvis_rotation	pelvis_tx	pelvis_ty	pelvis_tz	hip_flexion_r	hip_adduction_r	hip_rotation_r	knee_angle_r	ankle_angle_r	subtalar_angle_r	mtp_angle_r	hip_flexion_l	hip_adduction_l	hip_rotation_l	knee_angle_l	ankle_angle_l	subtalar_angle_l	mtp_angle_l	lumbar_extension	lumbar_bending	lumbar_rotation	arm_flex_r	arm_add_r	arm_rot_r	elbow_flex_r	pro_sup_r	arm_flex_l	arm_add_l	arm_rot_l	elbow_flex_l	pro_sup_l
0.47	0.00993824	-0.0151322	-0.0234019	0.334831	0.945277	-0.203597	-0.141971	0.053037	-0.0319005	0.185252	0.484861	0.167475	0	0.460442	-0.112031	-0.128888	0.185648	0.0912417	0.192073	0	-0.19221	-0.0934026	0.0436058	0.158057	-0.190432	0.162315	0.65523	2.09	-0.0289481	-0.146478	-0.289333	0.558109	2.09
0.48	0.0142932	-0.0134594	-0.0282496	0.347158	0.943004	-0.203125	-0.164276	0.0502095	-0.0304147	0.180566	0.495192	0.171035	0	0.446887	-0.109669	-0.107125	0.129046	0.0833991	0.150651	0	-0.199347	-0.105025	0.0447415	0.170588	-0.188914	0.173795	0.656611	2.09	-0.032347	-0.149228	-0.29955	0.559546	2.09
0.49	0.0181949	-0.0118076	-0.0332357	0.359609	0.940621	-0.202702	-0.185685	0.0471339	-0.0288828	0.176862	0.504924	0.174376	0	0.435181	-0.108688	-0.0850645	0.0815861	0.0759946	0.104884	0	-0.205739	-0.116788	0.0457892	0.182292	-0.186752	0.183851	0.65774	2.09	-0.0356681	-0.152114	-0.309437	0.560145	2.09
0.5	0.021495	-0.00989183	-0.0380894	0.372178	0.938157	-0.202326	-0.205898	0.0436416	-0.0271241	0.174372	0.513809	0.176871	0	0.427159	-0.108767	-0.0699918	0.0470918	0.0730741	0.0680252	0	-0.211213	-0.129016	0.0466067	0.193013	-0.183814	0.192276	0.658539	2.09	-0.0388594	-0.155343	-0.318647	0.559915	2.09
0.51	0.0241952	-0.00711272	-0.0425165	0.384858	0.935673	-0.202013	-0.224758	0.0391887	-0.0254351	0.173335	0.521745	0.178447	0	0.422829	-0.10841	-0.0612746	0.0260211	0.0745563	0.0411874	0	-0.215806	-0.142367	0.0469463	0.202624	-0.179948	0.198895	0.658946	2.09	-0.041839	-0.15914	-0.326891	0.5589	2.09
0.52	0.026305	-0.00312726	-0.0463342	0.397668	0.933211	-0.201772	-0.242222	0.0335065	-0.0240096	0.173845	0.528547	0.179022	0	0.421918	-0.106718	-0.0574741	0.0181811	0.0798267	0.0241822	0	-0.219506	-0.157216	0.0466999	0.210905	-0.175108	0.203621	0.659059	2.09	-0.0445982	-0.163625	-0.334049	0.557168	2.09
0.53	0.0280528	0.00231964	-0.0494393	0.410647	0.93082	-0.201614	-0.258629	0.0263584	-0.0232624	0.175776	0.534051	0.178898	0	0.423378	-0.103071	-0.0558447	0.0220142	0.0867254	0.0138785	0	-0.222528	-0.173852	0.045762	0.217701	-0.16934	0.206694	0.658995	2.09	-0.047181	-0.16878	-0.3405	0.554906	2.09
0.54	0.0292881	0.0091854	-0.0517621	0.423827	0.928509	-0.201548	-0.273875	0.0178714	-0.0232853	0.179066	0.53797	0.177908	0	0.426859	-0.0974399	-0.0566367	0.0360003	0.0944125	0.0116364	0	-0.224666	-0.192202	0.0442508	0.222661	-0.162771	0.208007	0.659118	2.09	-0.0495527	-0.174589	-0.346135	0.552009	2.09
0.55	0.0298246	0.0173762	-0.0533313	0.437221	0.926282	-0.201571	-0.287619	0.00802667	-0.0257387	0.184006	0.540728	0.178331	0	0.432959	-0.0905107	-0.068499	0.0599742	0.106637	0.0318913	0	-0.225713	-0.21216	0.0423512	0.225568	-0.155572	0.20772	0.659712	2.09	-0.0516662	-0.180976	-0.351133	0.54847	2.09
0.56	0.029862	0.0265187	-0.0539632	0.450899	0.924159	-0.201747	-0.300818	-0.00236522	-0.0270909	0.189321	0.540188	0.174526	0	0.437809	-0.0811539	-0.0684327	0.0850891	0.106695	0.0356238	0	-0.225803	-0.233149	0.0401223	0.226184	-0.148231	0.206471	0.661136	2.09	-0.0535504	-0.187737	-0.355273	0.544135	2.09
0.57	0.0292221	0.0365549	-0.0538285	0.46483	0.922158	-0.20207	-0.312917	-0.0134647	-0.0293812	0.195595	0.537035	0.169581	0	0.442704	-0.0702981	-0.0703042	0.112008	0.101364	0.0445908	0	-0.22483	-0.255122	0.0378304	0.224576	-0.140923	0.204658	0.663433	2.09	-0.0551332	-0.194776	-0.358801	0.539171	2.09
0.58	0.0277655	0.0472088	-0.0530147	0.478992	0.920294	-0.202555	-0.323574	-0.0249898	-0.0324623	0.203082	0.531005	0.163409	0	0.447213	-0.0582212	-0.0727714	0.138094	0.0888828	0.0551927	0	-0.222704	-0.277716	0.0356974	0.220867	-0.133946	0.202955	0.666565	2.09	-0.0563921	-0.201966	-0.361629	0.533647	2.09
0.59	0.0254378	0.0582981	-0.0516877	0.493346	0.918598	-0.203204	-0.33235	-0.0367997	-0.0361444	0.212313	0.521929	0.156016	0	0.45111	-0.0451896	-0.0751712	0.161792	0.0693455	0.064843	0	-0.21945	-0.300708	0.0339402	0.215311	-0.127469	0.201886	0.670325	2.09	-0.0572945	-0.209185	-0.363839	0.52771	2.09
0.6	0.0222287	0.0696652	-0.050065	0.507843	0.917104	-0.203999	-0.338659	-0.0488115	-0.0401857	0.224118	0.509688	0.14745	0	0.454524	-0.0315676	-0.0774775	0.182974	0.0449676	0.0722164	0	-0.215132	-0.323932	0.0327783	0.208225	-0.121534	0.201775	0.674377	2.09	-0.0577862	-0.216324	-0.365626	0.521517	2.09
0.61	0.0181975	0.0811375	-0.048379	0.522428	0.915849	-0.20491	-0.341864	-0.0609451	-0.04426	0.239514	0.494117	0.137682	0	0.457941	-0.0178574	-0.0802445	0.202931	0.0197698	0.0773716	0	-0.209869	-0.347223	0.0324031	0.199964	-0.11607	0.202721	0.678315	2.09	-0.0577872	-0.223269	-0.367164	0.515277	2.0884
0.62	0.0134882	0.092495	-0.0468142	0.537044	0.914869	-0.205897	-0.341387	-0.0730584	-0.0479396	0.259546	0.474893	0.126458	0	0.462054	-0.00466858	-0.0843862	0.223865	-0.00133335	0.0815982	0	-0.203861	-0.370352	0.0329246	0.190892	-0.110933	0.204638	0.681729	2.09	-0.0572073	-0.229929	-0.368737	0.509125	2.08537
0.63	0.00833028	0.103452	-0.0454655	0.551635	0.914196	-0.206924	-0.33679	-0.0849049	-0.050741	0.285142	0.451472	0.113242	0	0.467456	0.00734852	-0.0908538	0.247989	-0.0138053	0.0869568	0	-0.197412	-0.392983	0.0342949	0.181398	-0.105959	0.207359	0.684256	2.09	-0.0559763	-0.236185	-0.370771	0.503198	2.08127
0.64	0.003007	0.113705	-0.0443376	0.566148	0.913859	-0.207966	-0.327798	-0.0961848	-0.0523004	0.317023	0.423135	0.0973557	0	0.474174	0.0176601	-0.100092	0.276321	-0.014896	0.0952642	0	-0.190905	-0.414701	0.0362962	0.171873	-0.101018	0.210718	0.685633	2.09	-0.0540806	-0.241905	-0.373682	0.497652	2.07652
0.65	-0.00246111	0.122854	-0.0434643	0.580536	0.913855	-0.208991	-0.31396	-0.106249	-0.0511793	0.355625	0.388471	0.0760941	0	0.482008	0.0253536	-0.113787	0.308694	-0.00314049	0.110605	0	-0.184346	-0.43498	0.0387674	0.162633	-0.096033	0.214657	0.685709	2.09	-0.0516432	-0.246988	-0.377611	0.492713	2.0707
0.66	-0.00750621	0.13021	-0.0428467	0.594768	0.914226	-0.209964	-0.295973	-0.113759	-0.0452693	0.400244	0.344776	0.0447944	0	0.489542	0.0291941	-0.133391	0.343638	0.0212926	0.137376	0	-0.178408	-0.452943	0.0414246	0.153992	-0.0910834	0.219157	0.684662	2.09	-0.0487528	-0.251352	-0.381847	0.488723	2.06077
0.67	-0.0117128	0.138049	-0.0419005	0.608835	0.915013	-0.211133	-0.273404	-0.124372	-0.0489746	0.452942	0.299844	0.0246372	0	0.493038	0.0365102	-0.140435	0.372877	0.0431771	0.144225	0	-0.173953	-0.470586	0.0427643	0.146118	-0.0862867	0.22434	0.682849	2.09	-0.0456405	-0.25477	-0.389346	0.485368	2.05817
0.68	-0.0155606	0.144637	-0.0410097	0.622705	0.916129	-0.212338	-0.246713	-0.134232	-0.0518139	0.510945	0.247359	-0.00200438	0	0.494186	0.0423459	-0.148489	0.399151	0.0690308	0.154814	0	-0.170077	-0.486073	0.0434166	0.138977	-0.081887	0.230598	0.680609	2.09	-0.0426343	-0.257315	-0.398001	0.48314	2.05549
0.69	-0.0189867	0.150152	-0.0400947	0.636365	0.917532	-0.213629	-0.216615	-0.144162	-0.055893	0.572805	0.188987	-0.0331082	0	0.492322	0.0477739	-0.154872	0.420645	0.0949239	0.164595	0	-0.166838	-0.499373	0.0430371	0.132542	-0.0782063	0.238348	0.678435	2.09	-0.0399409	-0.258945	-0.407528	0.482092	2.05306
